<svg width="46" height="46" fill="none" stroke="currentColor" stroke-linecap="round" stroke-linejoin="round" stroke-width="1.5" viewBox="0 0 24 24" xmlns="http://www.w3.org/2000/svg">
  <path d="M9.714 2.857a3.429 3.429 0 0 1 3.429 3.429V8.57a3.429 3.429 0 1 1-6.857 0V6.286a3.429 3.429 0 0 1 3.428-3.429Zm8 16v-.832c0-3.642-4.213-6.025-8-6.025s-8 2.383-8 6.025v.832c0 .631.512 1.143 1.143 1.143h13.714c.632 0 1.143-.512 1.143-1.143Z" clip-rule="evenodd"></path>
  <path fill="currentColor" fill-rule="evenodd" d="M14.308 3.06a3.43 3.43 0 0 1 2.263 3.226v1.143c0 1.482-.968 2.95-2.285 3.428.77-1.05 1.155-2.384 1.154-4-.001-1.618-.378-2.883-1.132-3.797ZM20 20h1.143c.631 0 1.143-.512 1.143-1.143v-.832c0-2.48-1.954-4.376-4.396-5.334 0 0 3.253 2.737 2.11 7.309Z" clip-rule="evenodd"></path>
</svg>